<?xml version="1.0" encoding="UTF-8" standalone="no"?>
<!-- Created with Inkscape (http://www.inkscape.org/) -->

<svg
   xmlns:dc="http://purl.org/dc/elements/1.1/"
   xmlns:cc="http://creativecommons.org/ns#"
   xmlns:rdf="http://www.w3.org/1999/02/22-rdf-syntax-ns#"
   xmlns:svg="http://www.w3.org/2000/svg"
   xmlns="http://www.w3.org/2000/svg"
   xmlns:sodipodi="http://sodipodi.sourceforge.net/DTD/sodipodi-0.dtd"
   xmlns:inkscape="http://www.inkscape.org/namespaces/inkscape"
   width="210mm"
   height="297mm"
   viewBox="0 0 744.09448819 1052.3622047"
   id="svg4492"
   version="1.1"
   inkscape:version="0.91 r13725"
   sodipodi:docname="logo.svg">
  <defs
     id="defs4494" />
  <sodipodi:namedview
     id="base"
     pagecolor="#ffffff"
     bordercolor="#666666"
     borderopacity="1.0"
     inkscape:pageopacity="0.0"
     inkscape:pageshadow="2"
     inkscape:zoom="0.84856847"
     inkscape:cx="-12.600397"
     inkscape:cy="385.28172"
     inkscape:document-units="px"
     inkscape:current-layer="layer1"
     showgrid="false"
     showborder="false"
     inkscape:snap-text-baseline="false"
     inkscape:object-nodes="false"
     inkscape:window-width="1440"
     inkscape:window-height="793"
     inkscape:window-x="2"
     inkscape:window-y="0"
     inkscape:window-maximized="0" />
  <metadata
     id="metadata4497">
    <rdf:RDF>
      <cc:Work
         rdf:about="">
        <dc:format>image/svg+xml</dc:format>
        <dc:type
           rdf:resource="http://purl.org/dc/dcmitype/StillImage" />
        <dc:title></dc:title>
      </cc:Work>
    </rdf:RDF>
  </metadata>
  <g
     inkscape:label="Layer 1"
     inkscape:groupmode="layer"
     id="layer1">
    <text
       xml:space="preserve"
       style="font-style:normal;font-variant:normal;font-weight:500;font-stretch:normal;font-size:40px;line-height:125%;font-family:GeosansLight;-inkscape-font-specification:'GeosansLight Medium';text-align:start;letter-spacing:0px;word-spacing:0px;writing-mode:lr-tb;text-anchor:start;fill:#000000;fill-opacity:1;stroke:none;stroke-width:1px;stroke-linecap:butt;stroke-linejoin:miter;stroke-opacity:1;"
       x="-321.71829"
       y="735.35773"
       id="text5164"
       sodipodi:linespacing="125%"><tspan
         sodipodi:role="line"
         id="tspan5166"
         x="-321.71829"
         y="735.35773" /></text>
    <g
       id="g5176">
      <path
         id="path5127"
         d="M -147.95117 497.88281 L -173.10938 562.93945 C -169.73498 562.51503 -166.36005 562.11267 -162.98438 561.7207 L -147.95117 522.80078 L -134.06641 558.74414 C -130.9271 558.46051 -127.78675 558.20059 -124.64648 557.94141 L -147.95117 497.88281 z M 358.86719 500.27734 L 342.20508 555.23633 C 345.63013 555.08365 349.05339 554.91362 352.47656 554.73047 L 358.86719 533.34375 L 365.00391 553.99219 C 368.28944 553.78148 371.57376 553.54988 374.85742 553.3125 L 358.86719 500.27734 z M -321.98047 503.39258 L -321.98047 590.94727 C -318.79205 590.09276 -315.59479 589.27294 -312.39648 588.45508 L -312.39648 579.10742 L -312.39648 513.2168 L -282.68555 513.2168 C -277.57406 513.2168 -272.78114 513.93544 -268.30859 515.37305 C -263.83605 516.65091 -259.92277 518.6478 -256.56836 521.36328 C -253.21395 523.91902 -250.57892 527.2727 -248.66211 531.42578 C -246.74531 535.41913 -245.78711 540.13155 -245.78711 545.5625 C -245.78711 556.4244 -248.98174 564.73005 -255.37109 570.48047 C -261.60071 576.23089 -269.82781 579.10742 -280.05078 579.10742 L -289.60742 579.10742 L -287.34766 582.42969 C -273.05468 579.20279 -258.68733 576.28794 -244.26367 573.67773 C -242.27015 571.17422 -240.61459 568.35892 -239.31836 565.21094 C -236.92235 559.77999 -235.72461 553.31023 -235.72461 545.80273 C -235.72461 538.93417 -237.0009 532.86301 -239.55664 527.5918 C -241.95265 522.32058 -245.22778 517.92821 -249.38086 514.41406 C -253.53394 510.74018 -258.48591 508.02465 -264.23633 506.26758 C -269.98675 504.35077 -276.05596 503.39258 -282.44531 503.39258 L -321.98047 503.39258 z M -65.064453 503.39258 L -65.064453 554.35352 C -61.870111 554.22679 -58.675538 554.10807 -55.480469 554 L -55.480469 512.97656 L -8.0390625 512.97656 C 12.24714 512.97656 28.618883 520.64406 41.078125 535.97852 C 45.392087 541.238 48.899098 546.9625 51.613281 553.14258 C 55.14641 553.18503 58.679418 553.23154 62.212891 553.2832 C 58.858059 544.53511 54.135499 536.52746 48.027344 529.26953 C 33.651294 512.01827 14.962615 503.39258 -8.0390625 503.39258 L -65.064453 503.39258 z M 86.558594 503.39258 L 86.558594 553.70312 C 89.753288 553.76476 92.947734 553.82667 96.142578 553.89258 L 96.142578 503.39258 L 86.558594 503.39258 z M 167.04883 503.39258 L 167.04883 555.4707 C 170.24346 555.54022 173.43834 555.61152 176.63281 555.67773 L 176.63281 513.2168 L 206.34375 513.2168 C 211.45524 513.2168 216.2462 513.93544 220.71875 515.37305 C 225.1913 516.65091 229.10652 518.6478 232.46094 521.36328 C 235.81535 523.91902 238.45038 527.2727 240.36719 531.42578 C 242.28399 535.41913 243.24219 540.13155 243.24219 545.5625 C 243.24219 549.6077 242.79829 553.29665 241.91211 556.63281 C 245.3829 556.65422 248.85395 556.66275 252.32422 556.67188 C 252.97286 553.32755 253.30469 549.70914 253.30469 545.80273 C 253.30469 538.93417 252.0284 532.86301 249.47266 527.5918 C 247.07665 522.32058 243.80152 517.92821 239.64844 514.41406 C 235.49536 510.74018 230.54339 508.02465 224.79297 506.26758 C 219.04255 504.35077 212.97334 503.39258 206.58398 503.39258 L 167.04883 503.39258 z M 261.10938 503.39258 L 277.94141 556.60938 C 281.19594 556.58493 284.45114 556.5622 287.70508 556.52344 L 270.69336 503.39258 L 261.10938 503.39258 z M 446.80078 503.39258 L 432.56641 547.84961 C 436.07377 547.44085 439.57923 547.01452 443.08398 546.58008 L 456.86328 503.39258 L 446.80078 503.39258 z "
         style="font-style:normal;font-variant:normal;font-weight:500;font-stretch:normal;font-size:medium;line-height:125%;font-family:GeosansLight;-inkscape-font-specification:'GeosansLight Medium';text-align:start;letter-spacing:0px;word-spacing:0px;writing-mode:lr-tb;text-anchor:start;fill:#916f6f;fill-opacity:1;stroke:none;stroke-width:1px;stroke-linecap:butt;stroke-linejoin:miter;stroke-opacity:1;opacity:1" />
      <path
         id="path5121"
         d="m -282.92578,588.92969 -11.02149,0 6.40821,10.07812 c 3.23221,-0.74273 6.45917,-1.47121 9.67968,-2.17969 l -5.0664,-7.89843 z"
         style="font-style:normal;font-variant:normal;font-weight:500;font-stretch:normal;font-size:medium;line-height:125%;font-family:GeosansLight;-inkscape-font-specification:'GeosansLight Medium';text-align:start;letter-spacing:0px;word-spacing:0px;writing-mode:lr-tb;text-anchor:start;fill:#000000;fill-opacity:1;stroke:none;stroke-width:1px;stroke-linecap:butt;stroke-linejoin:miter;stroke-opacity:1;opacity:0.508" />
      <path
         id="path5109"
         d="M 506.20898 552.82227 C 391.26734 574.83348 280.93655 574.11487 169.56641 571.53125 C 47.686182 568.70382 -75.445105 563.66762 -207.47656 583.76758 C -260.49146 591.83836 -314.94577 603.97705 -371.32617 621.92383 C -354.73145 618.60397 -338.28906 615.72332 -321.98047 613.2207 L -321.98047 674.46875 L -312.39648 674.46875 L -312.39648 611.78906 C -311.94499 611.72371 -311.49231 611.65462 -311.04102 611.58984 C -301.29517 610.19096 -291.60238 608.94102 -281.94922 607.79883 L -239.55664 674.46875 L -228.05664 674.46875 L -271.58203 606.61523 C -243.19073 603.50046 -215.18081 601.41887 -187.47461 600.08984 L -216.23828 674.46875 L -206.6543 674.46875 L -186.76562 623.19336 L -182.93359 613.36914 L -177.63281 599.64648 C -157.89474 598.82153 -138.30716 598.35889 -118.8418 598.16211 L -112.96875 613.36914 L -108.89648 623.19336 L -89.248047 674.46875 L -79.425781 674.46875 L -109.06836 598.08398 C -94.333914 597.99919 -79.675844 598.06875 -65.064453 598.2207 L -65.064453 674.46875 L -8.0390625 674.46875 C 15.122349 674.46875 33.891529 665.84306 48.267578 648.5918 C 59.293717 635.20291 65.77924 619.32741 67.744141 600.97656 C 74.017024 601.11409 80.291433 601.25142 86.558594 601.36914 L 86.558594 674.46875 L 144.30273 674.46875 L 144.30273 664.64453 L 96.142578 664.64453 L 96.142578 601.52344 C 119.78412 601.91866 143.40229 602.14062 167.04883 601.94531 L 167.04883 674.46875 L 176.63281 674.46875 L 176.63281 601.83398 C 185.39946 601.72064 194.17114 601.54635 202.95117 601.30664 L 249.47266 674.46875 L 260.97266 674.46875 L 213.82812 600.97266 C 239.28473 600.10986 264.81943 598.64486 290.50195 596.31641 L 315.97852 676.86328 L 341.79688 590.4668 L 341.79688 590.46484 C 352.61435 588.9726 363.46332 587.32363 374.35352 585.45703 L 401.51562 676.86328 L 434.61719 573.11523 C 458.24416 567.45716 482.09178 560.75447 506.20898 552.82227 z M 423.6582 575.66602 L 401.99414 643.32031 L 384.03516 583.75195 C 397.18087 581.36173 410.3864 578.67278 423.6582 575.66602 z M 23.376953 578.86719 C 126.89784 579.2185 230.41357 585.33882 333.92773 581.46094 C 305.40078 585.17921 276.4661 587.71701 247.61914 589.38086 C 106.41774 597.27474 -35.07968 583.73944 -176.38477 589.56055 C -117.00355 582.07896 -57.195094 579.00281 2.671875 578.87891 C 9.5733066 578.84638 16.475561 578.84377 23.376953 578.86719 z M 331.08984 591.89648 L 315.49805 643.32031 L 300.15039 595.38867 C 310.43729 594.37008 320.7484 593.21513 331.08984 591.89648 z M -55.480469 598.31445 C -17.77382 598.80988 19.580835 599.87888 56.794922 600.74219 C 57.163694 600.75074 57.531646 600.75711 57.900391 600.76562 C 55.868231 618.69183 49.149798 633.43958 37.724609 644.99609 C 24.786165 658.09427 9.5316641 664.64453 -8.0390625 664.64453 L -55.480469 664.64453 L -55.480469 598.31445 z "
         style="font-style:normal;font-variant:normal;font-weight:500;font-stretch:normal;font-size:medium;line-height:125%;font-family:GeosansLight;-inkscape-font-specification:'GeosansLight Medium';text-align:start;letter-spacing:0px;word-spacing:0px;writing-mode:lr-tb;text-anchor:start;fill:#87aade;fill-opacity:1;stroke:none;stroke-width:1px;stroke-linecap:butt;stroke-linejoin:miter;stroke-opacity:1;opacity:1" />
      <text
         sodipodi:linespacing="125%"
         id="text5168"
         y="697.6568"
         x="-324.03943"
         style="font-style:normal;font-variant:normal;font-weight:500;font-stretch:normal;font-size:24.02323532px;line-height:125%;font-family:GeosansLight;-inkscape-font-specification:'GeosansLight Medium';text-align:start;letter-spacing:7.88000011px;word-spacing:54.26000214px;writing-mode:lr-tb;text-anchor:start;fill:#4d4d4d;fill-opacity:1;stroke:none;stroke-width:1px;stroke-linecap:butt;stroke-linejoin:miter;stroke-opacity:1"
         xml:space="preserve"><tspan
           dx="0 0 0 0 0 0 0 0 0 19.66 0 0 21.310009 0 0 -27.390043 0 0 0 0 10.609995"
           y="697.6568"
           x="-324.03943"
           id="tspan5170"
           sodipodi:role="line">RUBEN A. DE LA ROSA W..</tspan></text>
      <text
         sodipodi:linespacing="125%"
         id="text5172"
         y="697.6568"
         x="-134.3439"
         style="font-style:italic;font-variant:normal;font-weight:500;font-stretch:normal;font-size:40px;line-height:125%;font-family:GeosansLight;-inkscape-font-specification:'GeosansLight, Medium Italic';text-align:start;letter-spacing:12.60000038px;word-spacing:0px;writing-mode:lr-tb;text-anchor:start;fill:#000000;fill-opacity:1;stroke:none;stroke-width:1px;stroke-linecap:butt;stroke-linejoin:miter;stroke-opacity:1"
         xml:space="preserve"><tspan
           y="697.6568"
           x="-134.3439"
           id="tspan5174"
           sodipodi:role="line">.</tspan></text>
    </g>
  </g>
</svg>
